<svg xmlns="http://www.w3.org/2000/svg" xmlns:xlink="http://www.w3.org/1999/xlink" width="836" zoomAndPan="magnify" viewBox="0 0 627 433.499982" height="578" preserveAspectRatio="xMidYMid meet" version="1.0"><defs><g/></defs><path fill="#ffffff" d="M 436.625 43.183594 C 440.785156 47.980469 469.789062 87.882812 473.066406 84.980469 C 475.96875 82.328125 476.09375 75.886719 473.699219 69.449219 C 472.691406 66.796875 463.988281 51.390625 466.636719 50.128906 C 479.625 61.871094 490.597656 76.390625 499.425781 91.542969 C 506.738281 104.046875 516.953125 120.710938 518.089844 135.613281 C 491.984375 133.339844 463.988281 142.9375 447.972656 169.199219 C 441.667969 179.554688 429.308594 200.894531 447.34375 226.777344 C 460.710938 245.84375 489.460938 253.546875 507.117188 239.910156 C 518.339844 231.324219 525.652344 217.433594 530.445312 203.039062 C 532.96875 195.589844 533.726562 186.371094 534.859375 178.671875 C 535.492188 174.503906 536.121094 170.210938 536.625 166.042969 C 536.878906 165.917969 545.453125 168.820312 545.957031 168.949219 C 569.035156 179.175781 586.058594 201.652344 596.398438 223.496094 C 606.109375 244.203125 610.902344 265.542969 604.722656 288.523438 C 603.210938 294.207031 594.128906 323.625 599.425781 321.734375 C 613.550781 316.808594 619.226562 297.488281 621.242188 283.597656 C 626.160156 250.894531 620.738281 221.347656 603.335938 192.8125 C 595.140625 179.429688 585.429688 168.441406 573.195312 158.71875 C 567.015625 153.796875 560.207031 149.628906 553.019531 146.09375 C 551.128906 145.210938 536.246094 140.410156 536.121094 139.402344 C 530.195312 109.855469 511.53125 72.855469 499.800781 58.714844 C 497.40625 55.8125 485.679688 43.6875 486.433594 42.804688 C 488.074219 40.660156 513.167969 42.171875 515.816406 36.617188 C 520.863281 25.632812 476.347656 14.648438 468.78125 12.375 C 451.125 6.945312 447.34375 7.703125 429.433594 3.410156 C 418.714844 0.757812 414.050781 0 410.898438 1.769531 C 406.105469 4.292969 431.707031 37.628906 436.625 43.183594 Z M 524.394531 162.003906 C 525.652344 162.003906 523.511719 183.722656 523.007812 186.5 C 520.988281 196.601562 515.945312 206.449219 510.648438 215.160156 C 501.566406 230.1875 475.96875 239.65625 461.214844 222.738281 C 453.394531 213.773438 451.125 204.050781 452.261719 192.308594 C 453.648438 178.292969 461.84375 167.683594 473.445312 161.496094 C 490.21875 152.660156 506.992188 154.804688 524.394531 162.003906 C 524.265625 162.003906 523.382812 161.496094 524.394531 162.003906 Z M 524.394531 162.003906 " fill-opacity="1" fill-rule="nonzero"/><g fill="#ffffff" fill-opacity="1"><g transform="translate(0.361188, 397.042164)"><g><path d="M 53.9375 -63.15625 C 55.375 -59.882812 56.09375 -57.328125 56.09375 -55.484375 C 56.09375 -53.648438 55.410156 -52.171875 54.046875 -51.046875 C 52.691406 -49.929688 51.09375 -49.375 49.25 -49.375 C 47.414062 -49.375 46.019531 -49.773438 45.0625 -50.578125 C 44.101562 -51.378906 43.265625 -53.097656 42.546875 -55.734375 C 40.953125 -60.609375 37.035156 -61.046875 30.796875 -57.046875 C 25.441406 -53.859375 21.566406 -49.226562 19.171875 -43.15625 C 16.773438 -37.082031 16.132812 -31.046875 17.25 -25.046875 C 18.375 -19.054688 21.210938 -14.503906 25.765625 -11.390625 C 31.441406 -7.554688 37.15625 -7.753906 42.90625 -11.984375 C 46.1875 -14.304688 48.382812 -16.425781 49.5 -18.34375 C 51.019531 -20.65625 53.054688 -21.648438 55.609375 -21.328125 C 58.171875 -21.015625 59.929688 -19.617188 60.890625 -17.140625 C 62.328125 -13.378906 59.453125 -8.503906 52.265625 -2.515625 C 42.273438 5.628906 32.320312 7.109375 22.40625 1.921875 C 14.65625 -2.078125 9.222656 -8.3125 6.109375 -16.78125 C 2.992188 -25.25 2.835938 -34.195312 5.640625 -43.625 C 7.316406 -49.382812 9.507812 -54.0625 12.21875 -57.65625 C 14.9375 -61.25 18.375 -64.40625 22.53125 -67.125 C 26.6875 -69.84375 29.5625 -71.441406 31.15625 -71.921875 C 32.757812 -72.398438 35.640625 -72.640625 39.796875 -72.640625 C 44.023438 -72.640625 47.0625 -71.835938 48.90625 -70.234375 C 50.820312 -68.796875 52.5 -66.4375 53.9375 -63.15625 Z M 53.9375 -63.15625 "/></g></g></g><g fill="#ffffff" fill-opacity="1"><g transform="translate(65.206422, 397.042164)"><g><path d="M 29.96875 -38.953125 C 27.644531 -41.273438 25.285156 -41.554688 22.890625 -39.796875 C 20.492188 -38.035156 18.578125 -34.515625 17.140625 -29.234375 C 15.703125 -23.960938 16.019531 -19.085938 18.09375 -14.609375 C 20.175781 -10.140625 22.9375 -8.347656 26.375 -9.234375 C 28.53125 -9.785156 30.085938 -10.539062 31.046875 -11.5 C 32.003906 -12.457031 32.878906 -14.375 33.671875 -17.25 C 34.472656 -20.132812 34.472656 -24.050781 33.671875 -29 C 32.878906 -33.957031 31.644531 -37.273438 29.96875 -38.953125 Z M 3.703125 -26.609375 C 4.023438 -32.835938 5.625 -38.507812 8.5 -43.625 C 11.382812 -48.738281 15.101562 -52.210938 19.65625 -54.046875 C 24.207031 -55.890625 30.878906 -54.414062 39.671875 -49.625 C 44.304688 -47.0625 47.257812 -44.898438 48.53125 -43.140625 C 49.8125 -41.390625 49.894531 -39.394531 48.78125 -37.15625 C 47.664062 -34.914062 47.1875 -30.601562 47.34375 -24.21875 C 47.820312 -9.03125 42.425781 0.195312 31.15625 3.46875 C 22.6875 5.945312 15.414062 3.710938 9.34375 -3.234375 C 6.789062 -6.191406 5.113281 -9.269531 4.3125 -12.46875 C 3.59375 -15.664062 3.390625 -20.378906 3.703125 -26.609375 Z M 3.703125 -26.609375 "/></g></g></g><g fill="#ffffff" fill-opacity="1"><g transform="translate(118.425065, 397.042164)"><g><path d="M 49.140625 -5.515625 C 48.335938 -3.597656 46.578125 -2.675781 43.859375 -2.75 C 41.148438 -2.832031 39.394531 -3.753906 38.59375 -5.515625 C 37.789062 -7.273438 36.910156 -11.109375 35.953125 -17.015625 C 34.992188 -22.929688 34.035156 -27.804688 33.078125 -31.640625 C 32.117188 -35.472656 31.078125 -38.347656 29.953125 -40.265625 C 28.835938 -42.191406 27.921875 -43.035156 27.203125 -42.796875 C 23.691406 -41.429688 21.578125 -33.398438 20.859375 -18.703125 C 20.535156 -12.148438 20.210938 -7.910156 19.890625 -5.984375 C 19.578125 -4.066406 18.941406 -2.75 17.984375 -2.03125 C 14.785156 0.195312 11.90625 0.0351562 9.34375 -2.515625 C 8.382812 -3.390625 7.742188 -5.023438 7.421875 -7.421875 C 7.109375 -9.828125 6.710938 -14.546875 6.234375 -21.578125 C 5.835938 -32.921875 5.195312 -39.992188 4.3125 -42.796875 C 2.632812 -48.703125 3.710938 -52.457031 7.546875 -54.0625 C 9.703125 -54.78125 11.5 -54.660156 12.9375 -53.703125 C 14.382812 -52.742188 15.425781 -52.265625 16.0625 -52.265625 C 16.695312 -52.265625 18.09375 -52.941406 20.25 -54.296875 C 22.414062 -55.648438 24.9375 -56.328125 27.8125 -56.328125 C 30.6875 -56.328125 32.679688 -56.085938 33.796875 -55.609375 C 34.921875 -55.128906 36.640625 -53.570312 38.953125 -50.9375 C 41.347656 -48.382812 42.628906 -47.382812 42.796875 -47.9375 C 42.710938 -49.0625 43.867188 -50.582031 46.265625 -52.5 C 48.660156 -54.414062 50.78125 -55.65625 52.625 -56.21875 C 59.332031 -58.375 64.722656 -56.8125 68.796875 -51.53125 C 72.867188 -46.257812 75.585938 -37.429688 76.953125 -25.046875 C 77.585938 -19.054688 77.820312 -15.460938 77.65625 -14.265625 C 77.5 -13.066406 76.785156 -11.90625 75.515625 -10.78125 C 72.316406 -8.144531 69.757812 -7.785156 67.84375 -9.703125 C 65.925781 -11.617188 64.523438 -15.9375 63.640625 -22.65625 C 61.890625 -36.875 59.613281 -43.742188 56.8125 -43.265625 C 54.976562 -42.785156 53.179688 -39.59375 51.421875 -33.6875 C 50.378906 -30.25 49.9375 -25.171875 50.09375 -18.453125 C 50.257812 -11.742188 49.941406 -7.429688 49.140625 -5.515625 Z M 49.140625 -5.515625 "/></g></g></g><g fill="#ffffff" fill-opacity="1"><g transform="translate(199.811232, 397.042164)"><g><path d="M 18.6875 -11.265625 C 17.8125 -9.503906 16.175781 -8.625 13.78125 -8.625 C 11.382812 -8.625 9.707031 -9.425781 8.75 -11.03125 C 7.875 -12.625 6.796875 -16.457031 5.515625 -22.53125 C 4.234375 -28.601562 3.59375 -33.316406 3.59375 -36.671875 C 3.59375 -39.867188 4.191406 -42.1875 5.390625 -43.625 C 6.585938 -45.0625 8.304688 -45.78125 10.546875 -45.78125 C 12.785156 -45.78125 14.300781 -45.222656 15.09375 -44.109375 C 15.894531 -42.992188 16.617188 -40.835938 17.265625 -37.640625 C 17.816406 -34.441406 18.535156 -28.609375 19.421875 -20.140625 C 19.816406 -15.984375 19.570312 -13.023438 18.6875 -11.265625 Z M 17.5 -62.09375 C 17.5 -60.332031 16.78125 -58.734375 15.34375 -57.296875 C 13.90625 -55.859375 12.347656 -55.140625 10.671875 -55.140625 C 8.109375 -55.140625 6.347656 -56.613281 5.390625 -59.5625 C 4.515625 -62.519531 4.953125 -65.035156 6.703125 -67.109375 C 8.460938 -69.191406 10.703125 -69.59375 13.421875 -68.3125 C 16.140625 -67.039062 17.5 -64.96875 17.5 -62.09375 Z M 17.5 -62.09375 "/></g></g></g><g fill="#ffffff" fill-opacity="1"><g transform="translate(223.064416, 397.042164)"><g><path d="M 49.265625 -7.4375 C 47.109375 -7.4375 45.46875 -8.472656 44.34375 -10.546875 C 43.226562 -12.617188 42.109375 -16.453125 40.984375 -22.046875 C 39.234375 -31.960938 37.117188 -37.640625 34.640625 -39.078125 C 34.078125 -39.390625 33.519531 -39.347656 32.96875 -38.953125 C 30.96875 -37.359375 28.769531 -29.804688 26.375 -16.296875 C 25.570312 -11.898438 24.367188 -8.5625 22.765625 -6.28125 C 21.171875 -4.007812 19.472656 -3.03125 17.671875 -3.34375 C 15.878906 -3.664062 14.863281 -3.828125 14.625 -3.828125 C 13.664062 -3.828125 12.785156 -5.265625 11.984375 -8.140625 C 11.179688 -11.023438 10.300781 -16.5 9.34375 -24.5625 C 8.382812 -32.632812 7.066406 -38.550781 5.390625 -42.3125 C 2.597656 -48.78125 3 -52.894531 6.59375 -54.65625 C 10.425781 -56.65625 13.898438 -54.9375 17.015625 -49.5 L 19.78125 -44.59375 L 23.5 -48.546875 C 25.414062 -50.703125 27.726562 -52.257812 30.4375 -53.21875 C 33.15625 -54.175781 35.632812 -54.296875 37.875 -53.578125 C 41.550781 -52.460938 44.75 -49.722656 47.46875 -45.359375 C 50.1875 -41.003906 52.265625 -35.148438 53.703125 -27.796875 C 55.140625 -20.453125 55.578125 -15.222656 55.015625 -12.109375 C 54.378906 -8.992188 52.460938 -7.4375 49.265625 -7.4375 Z M 49.265625 -7.4375 "/></g></g></g><g fill="#ffffff" fill-opacity="1"><g transform="translate(281.916575, 397.042164)"><g><path d="M 29.125 -20.25 C 30.40625 -21.613281 31.84375 -24.691406 33.4375 -29.484375 C 35.039062 -34.273438 36 -37.75 36.3125 -39.90625 C 36.632812 -42.070312 36.554688 -43.3125 36.078125 -43.625 C 35.597656 -43.945312 34.28125 -44.226562 32.125 -44.46875 C 26.6875 -44.945312 22.53125 -42.148438 19.65625 -36.078125 C 18.457031 -33.441406 17.773438 -30.363281 17.609375 -26.84375 C 17.453125 -23.332031 17.929688 -20.9375 19.046875 -19.65625 C 20.171875 -18.375 21.8125 -17.8125 23.96875 -17.96875 C 26.125 -18.132812 27.84375 -18.894531 29.125 -20.25 Z M 22.65625 -56.8125 C 25.769531 -57.925781 28.765625 -58.484375 31.640625 -58.484375 C 34.515625 -58.484375 37.988281 -57.6875 42.0625 -56.09375 C 46.144531 -54.5 48.820312 -52.898438 50.09375 -51.296875 C 51.9375 -49.222656 52.9375 -37.316406 53.09375 -15.578125 C 53.09375 -8.066406 52.453125 -2.15625 51.171875 2.15625 C 49.898438 6.46875 47.820312 10.0625 44.9375 12.9375 C 42.0625 15.820312 38.785156 17.984375 35.109375 19.421875 C 31.441406 20.859375 28.164062 21.578125 25.28125 21.578125 C 22.40625 21.578125 20.488281 21.414062 19.53125 21.09375 C 18.570312 20.695312 17.695312 19.78125 16.90625 18.34375 C 15.945312 16.90625 15.625 15.222656 15.9375 13.296875 C 16.257812 11.378906 17.097656 10.140625 18.453125 9.578125 C 19.816406 9.023438 22.332031 8.507812 26 8.03125 C 29.675781 7.550781 32.632812 6.191406 34.875 3.953125 C 37.113281 1.710938 38.632812 -1.601562 39.4375 -6 L 40.15625 -11.03125 L 35.71875 -8.15625 C 30.207031 -4.476562 24.570312 -3.273438 18.8125 -4.546875 C 13.0625 -5.828125 8.75 -9.425781 5.875 -15.34375 C 3 -21.257812 2.878906 -28.648438 5.515625 -37.515625 C 6.554688 -41.273438 8.910156 -45.148438 12.578125 -49.140625 C 16.253906 -53.140625 19.613281 -55.695312 22.65625 -56.8125 Z M 22.65625 -56.8125 "/></g></g></g><g fill="#ffffff" fill-opacity="1"><g transform="translate(338.61122, 397.042164)"><g/></g></g><g fill="#ffffff" fill-opacity="1"><g transform="translate(383.199802, 397.042164)"><g><path d="M 29.125 -43.796875 C 28.082031 -45.921875 27.160156 -47.378906 26.359375 -48.171875 C 25.566406 -48.972656 24.429688 -49.375 22.953125 -49.375 C 21.472656 -49.375 20.332031 -48.617188 19.53125 -47.109375 C 18.332031 -44.628906 18.210938 -42.671875 19.171875 -41.234375 C 20.128906 -39.796875 23.285156 -37.554688 28.640625 -34.515625 C 33.992188 -31.484375 38.03125 -28.628906 40.75 -25.953125 C 43.46875 -23.273438 45.304688 -20.335938 46.265625 -17.140625 C 47.222656 -13.941406 47.460938 -11.34375 46.984375 -9.34375 C 46.503906 -7.351562 45.066406 -5.238281 42.671875 -3 C 34.515625 5.070312 24.804688 6.03125 13.546875 -0.125 C 8.347656 -2.914062 5.1875 -5.671875 4.0625 -8.390625 C 2.945312 -11.109375 3.910156 -13.625 6.953125 -15.9375 L 9.953125 -18.09375 L 16.90625 -14.03125 C 20.570312 -11.707031 23.523438 -10.382812 25.765625 -10.0625 C 28.003906 -9.75 29.863281 -10.085938 31.34375 -11.078125 C 32.820312 -12.078125 33.476562 -12.816406 33.3125 -13.296875 C 33.15625 -13.785156 32.316406 -14.867188 30.796875 -16.546875 C 29.117188 -18.140625 25.644531 -20.535156 20.375 -23.734375 C 15.101562 -26.929688 11.347656 -29.566406 9.109375 -31.640625 C 7.035156 -33.722656 5.753906 -35.300781 5.265625 -36.375 C 4.785156 -37.457031 4.507812 -39.238281 4.4375 -41.71875 C 4.4375 -46.1875 5.753906 -50.414062 8.390625 -54.40625 C 11.023438 -58.40625 14.179688 -60.96875 17.859375 -62.09375 C 19.773438 -62.726562 22.347656 -62.882812 25.578125 -62.5625 C 28.816406 -62.25 31.316406 -61.691406 33.078125 -60.890625 C 34.835938 -60.085938 36.875 -57.609375 39.1875 -53.453125 C 41.507812 -49.296875 42.671875 -46.335938 42.671875 -44.578125 C 42.671875 -42.828125 41.832031 -41.234375 40.15625 -39.796875 C 38.3125 -38.359375 36.671875 -37.71875 35.234375 -37.875 C 33.796875 -38.03125 32.675781 -38.523438 31.875 -39.359375 C 31.082031 -40.203125 30.164062 -41.679688 29.125 -43.796875 Z M 29.125 -43.796875 "/></g></g></g><g fill="#ffffff" fill-opacity="1"><g transform="translate(434.021201, 397.042164)"><g><path d="M 29.96875 -38.953125 C 27.644531 -41.273438 25.285156 -41.554688 22.890625 -39.796875 C 20.492188 -38.035156 18.578125 -34.515625 17.140625 -29.234375 C 15.703125 -23.960938 16.019531 -19.085938 18.09375 -14.609375 C 20.175781 -10.140625 22.9375 -8.347656 26.375 -9.234375 C 28.53125 -9.785156 30.085938 -10.539062 31.046875 -11.5 C 32.003906 -12.457031 32.878906 -14.375 33.671875 -17.25 C 34.472656 -20.132812 34.472656 -24.050781 33.671875 -29 C 32.878906 -33.957031 31.644531 -37.273438 29.96875 -38.953125 Z M 3.703125 -26.609375 C 4.023438 -32.835938 5.625 -38.507812 8.5 -43.625 C 11.382812 -48.738281 15.101562 -52.210938 19.65625 -54.046875 C 24.207031 -55.890625 30.878906 -54.414062 39.671875 -49.625 C 44.304688 -47.0625 47.257812 -44.898438 48.53125 -43.140625 C 49.8125 -41.390625 49.894531 -39.394531 48.78125 -37.15625 C 47.664062 -34.914062 47.1875 -30.601562 47.34375 -24.21875 C 47.820312 -9.03125 42.425781 0.195312 31.15625 3.46875 C 22.6875 5.945312 15.414062 3.710938 9.34375 -3.234375 C 6.789062 -6.191406 5.113281 -9.269531 4.3125 -12.46875 C 3.59375 -15.664062 3.390625 -20.378906 3.703125 -26.609375 Z M 3.703125 -26.609375 "/></g></g></g><g fill="#ffffff" fill-opacity="1"><g transform="translate(487.239843, 397.042164)"><g><path d="M 29.96875 -38.953125 C 27.644531 -41.273438 25.285156 -41.554688 22.890625 -39.796875 C 20.492188 -38.035156 18.578125 -34.515625 17.140625 -29.234375 C 15.703125 -23.960938 16.019531 -19.085938 18.09375 -14.609375 C 20.175781 -10.140625 22.9375 -8.347656 26.375 -9.234375 C 28.53125 -9.785156 30.085938 -10.539062 31.046875 -11.5 C 32.003906 -12.457031 32.878906 -14.375 33.671875 -17.25 C 34.472656 -20.132812 34.472656 -24.050781 33.671875 -29 C 32.878906 -33.957031 31.644531 -37.273438 29.96875 -38.953125 Z M 3.703125 -26.609375 C 4.023438 -32.835938 5.625 -38.507812 8.5 -43.625 C 11.382812 -48.738281 15.101562 -52.210938 19.65625 -54.046875 C 24.207031 -55.890625 30.878906 -54.414062 39.671875 -49.625 C 44.304688 -47.0625 47.257812 -44.898438 48.53125 -43.140625 C 49.8125 -41.390625 49.894531 -39.394531 48.78125 -37.15625 C 47.664062 -34.914062 47.1875 -30.601562 47.34375 -24.21875 C 47.820312 -9.03125 42.425781 0.195312 31.15625 3.46875 C 22.6875 5.945312 15.414062 3.710938 9.34375 -3.234375 C 6.789062 -6.191406 5.113281 -9.269531 4.3125 -12.46875 C 3.59375 -15.664062 3.390625 -20.378906 3.703125 -26.609375 Z M 3.703125 -26.609375 "/></g></g></g><g fill="#ffffff" fill-opacity="1"><g transform="translate(540.458485, 397.042164)"><g><path d="M 49.265625 -7.4375 C 47.109375 -7.4375 45.46875 -8.472656 44.34375 -10.546875 C 43.226562 -12.617188 42.109375 -16.453125 40.984375 -22.046875 C 39.234375 -31.960938 37.117188 -37.640625 34.640625 -39.078125 C 34.078125 -39.390625 33.519531 -39.347656 32.96875 -38.953125 C 30.96875 -37.359375 28.769531 -29.804688 26.375 -16.296875 C 25.570312 -11.898438 24.367188 -8.5625 22.765625 -6.28125 C 21.171875 -4.007812 19.472656 -3.03125 17.671875 -3.34375 C 15.878906 -3.664062 14.863281 -3.828125 14.625 -3.828125 C 13.664062 -3.828125 12.785156 -5.265625 11.984375 -8.140625 C 11.179688 -11.023438 10.300781 -16.5 9.34375 -24.5625 C 8.382812 -32.632812 7.066406 -38.550781 5.390625 -42.3125 C 2.597656 -48.78125 3 -52.894531 6.59375 -54.65625 C 10.425781 -56.65625 13.898438 -54.9375 17.015625 -49.5 L 19.78125 -44.59375 L 23.5 -48.546875 C 25.414062 -50.703125 27.726562 -52.257812 30.4375 -53.21875 C 33.15625 -54.175781 35.632812 -54.296875 37.875 -53.578125 C 41.550781 -52.460938 44.75 -49.722656 47.46875 -45.359375 C 50.1875 -41.003906 52.265625 -35.148438 53.703125 -27.796875 C 55.140625 -20.453125 55.578125 -15.222656 55.015625 -12.109375 C 54.378906 -8.992188 52.460938 -7.4375 49.265625 -7.4375 Z M 49.265625 -7.4375 "/></g></g></g></svg>